<svg id="Layer_1" data-name="Layer 1" xmlns="http://www.w3.org/2000/svg" viewBox="0 0 2003.24 2444.48"><defs><style>.cls-1,.cls-4,.cls-5,.cls-6{opacity:0.1;}.cls-2,.cls-3,.cls-4,.cls-5,.cls-6{fill:none;stroke:#202020;}.cls-2,.cls-4,.cls-5,.cls-6{stroke-miterlimit:10;}.cls-2,.cls-4{stroke-width:6px;}.cls-3{stroke-linecap:round;stroke-linejoin:round;stroke-width:5px;}.cls-4,.cls-5,.cls-6{stroke-dasharray:24;isolation:isolate;}.cls-5{stroke-width:2px;}.cls-6{stroke-width:3px;}</style></defs><title>pagesBackground</title><g class="cls-1"><line class="cls-2" x1="53.82" y1="2.12" x2="96.62" y2="44.92"/><line class="cls-2" x1="96.62" y1="2.12" x2="53.82" y2="44.92"/><line class="cls-2" x1="53.82" y1="62.52" x2="96.62" y2="105.32"/><line class="cls-2" x1="96.62" y1="62.52" x2="53.82" y2="105.32"/><line class="cls-2" x1="114.32" y1="62.52" x2="157.12" y2="105.32"/><line class="cls-2" x1="157.12" y1="62.52" x2="114.32" y2="105.32"/><line class="cls-2" x1="114.32" y1="2.12" x2="157.12" y2="44.92"/><line class="cls-2" x1="157.12" y1="2.12" x2="114.32" y2="44.92"/><line class="cls-2" x1="174.72" y1="2.12" x2="217.52" y2="44.92"/><line class="cls-2" x1="217.52" y1="2.12" x2="174.72" y2="44.92"/><line class="cls-2" x1="174.72" y1="62.52" x2="217.52" y2="105.32"/><line class="cls-2" x1="217.52" y1="62.52" x2="174.72" y2="105.32"/><line class="cls-2" x1="235.22" y1="62.52" x2="278.02" y2="105.32"/><line class="cls-2" x1="278.02" y1="62.52" x2="235.22" y2="105.32"/><line class="cls-2" x1="235.22" y1="2.12" x2="278.02" y2="44.92"/><line class="cls-2" x1="278.02" y1="2.12" x2="235.22" y2="44.92"/><line class="cls-2" x1="174.72" y1="123.02" x2="217.52" y2="165.82"/><line class="cls-2" x1="217.52" y1="123.02" x2="174.72" y2="165.82"/><line class="cls-2" x1="174.72" y1="183.42" x2="217.52" y2="226.22"/><line class="cls-2" x1="217.52" y1="183.42" x2="174.72" y2="226.22"/><line class="cls-2" x1="235.22" y1="183.42" x2="278.02" y2="226.22"/><line class="cls-2" x1="278.02" y1="183.42" x2="235.22" y2="226.22"/><line class="cls-2" x1="235.22" y1="123.02" x2="278.02" y2="165.82"/><line class="cls-2" x1="278.02" y1="123.02" x2="235.22" y2="165.82"/><line class="cls-2" x1="295.62" y1="2.12" x2="338.42" y2="44.92"/><line class="cls-2" x1="338.42" y1="2.12" x2="295.62" y2="44.92"/><line class="cls-2" x1="295.62" y1="62.52" x2="338.42" y2="105.32"/><line class="cls-2" x1="338.42" y1="62.52" x2="295.62" y2="105.32"/><line class="cls-2" x1="356.12" y1="62.52" x2="398.92" y2="105.32"/><line class="cls-2" x1="398.92" y1="62.52" x2="356.12" y2="105.32"/><line class="cls-2" x1="356.12" y1="2.12" x2="398.92" y2="44.92"/><line class="cls-2" x1="398.92" y1="2.12" x2="356.12" y2="44.92"/><line class="cls-2" x1="295.62" y1="123.02" x2="338.42" y2="165.82"/><line class="cls-2" x1="338.42" y1="123.02" x2="295.62" y2="165.82"/><line class="cls-2" x1="295.62" y1="183.42" x2="338.42" y2="226.22"/><line class="cls-2" x1="338.42" y1="183.42" x2="295.62" y2="226.22"/><line class="cls-2" x1="356.12" y1="183.42" x2="398.92" y2="226.22"/><line class="cls-2" x1="398.92" y1="183.42" x2="356.12" y2="226.22"/><line class="cls-2" x1="356.12" y1="123.02" x2="398.92" y2="165.82"/><line class="cls-2" x1="398.92" y1="123.02" x2="356.12" y2="165.82"/><line class="cls-2" x1="416.52" y1="2.12" x2="459.32" y2="44.92"/><line class="cls-2" x1="459.32" y1="2.12" x2="416.52" y2="44.92"/><line class="cls-2" x1="416.52" y1="62.52" x2="459.32" y2="105.32"/><line class="cls-2" x1="459.32" y1="62.52" x2="416.52" y2="105.32"/><line class="cls-2" x1="477.02" y1="62.52" x2="519.82" y2="105.32"/><line class="cls-2" x1="519.82" y1="62.52" x2="477.02" y2="105.32"/><line class="cls-2" x1="477.02" y1="2.12" x2="519.82" y2="44.92"/><line class="cls-2" x1="519.82" y1="2.12" x2="477.02" y2="44.92"/><line class="cls-2" x1="416.52" y1="123.02" x2="459.32" y2="165.82"/><line class="cls-2" x1="459.32" y1="123.02" x2="416.52" y2="165.82"/><line class="cls-2" x1="416.52" y1="183.42" x2="459.32" y2="226.22"/><line class="cls-2" x1="459.32" y1="183.42" x2="416.52" y2="226.22"/><line class="cls-2" x1="477.02" y1="183.42" x2="519.82" y2="226.22"/><line class="cls-2" x1="519.82" y1="183.42" x2="477.02" y2="226.22"/><line class="cls-2" x1="477.02" y1="123.02" x2="519.82" y2="165.82"/><line class="cls-2" x1="519.82" y1="123.02" x2="477.02" y2="165.82"/><line class="cls-2" x1="53.82" y1="123.02" x2="96.62" y2="165.82"/><line class="cls-2" x1="96.62" y1="123.02" x2="53.82" y2="165.82"/><line class="cls-2" x1="53.82" y1="183.42" x2="96.62" y2="226.22"/><line class="cls-2" x1="96.62" y1="183.42" x2="53.82" y2="226.22"/><line class="cls-2" x1="114.32" y1="183.42" x2="157.12" y2="226.22"/><line class="cls-2" x1="157.12" y1="183.42" x2="114.32" y2="226.22"/><line class="cls-2" x1="114.32" y1="123.02" x2="157.12" y2="165.82"/><line class="cls-2" x1="157.12" y1="123.02" x2="114.32" y2="165.82"/></g><g class="cls-1"><line class="cls-2" x1="1113.72" y1="929.78" x2="1136.92" y2="953.08"/><line class="cls-2" x1="1136.92" y1="929.78" x2="1113.72" y2="953.08"/><line class="cls-2" x1="1113.72" y1="962.68" x2="1136.92" y2="985.98"/><line class="cls-2" x1="1136.92" y1="962.68" x2="1113.72" y2="985.98"/><line class="cls-2" x1="1146.52" y1="962.68" x2="1169.82" y2="985.98"/><line class="cls-2" x1="1169.82" y1="962.68" x2="1146.52" y2="985.98"/><line class="cls-2" x1="1146.52" y1="929.78" x2="1169.82" y2="953.08"/><line class="cls-2" x1="1169.82" y1="929.78" x2="1146.52" y2="953.08"/><line class="cls-2" x1="1179.42" y1="929.78" x2="1202.72" y2="953.08"/><line class="cls-2" x1="1202.72" y1="929.78" x2="1179.42" y2="953.08"/><line class="cls-2" x1="1179.42" y1="962.68" x2="1202.72" y2="985.98"/><line class="cls-2" x1="1202.72" y1="962.68" x2="1179.42" y2="985.98"/><line class="cls-2" x1="1212.32" y1="962.68" x2="1235.62" y2="985.98"/><line class="cls-2" x1="1235.62" y1="962.68" x2="1212.32" y2="985.98"/><line class="cls-2" x1="1212.32" y1="929.78" x2="1235.62" y2="953.08"/><line class="cls-2" x1="1235.62" y1="929.78" x2="1212.32" y2="953.08"/><line class="cls-2" x1="1179.42" y1="995.58" x2="1202.72" y2="1018.88"/><line class="cls-2" x1="1202.72" y1="995.58" x2="1179.42" y2="1018.88"/><line class="cls-2" x1="1179.42" y1="1028.48" x2="1202.72" y2="1051.78"/><line class="cls-2" x1="1202.72" y1="1028.48" x2="1179.42" y2="1051.78"/><line class="cls-2" x1="1212.32" y1="1028.48" x2="1235.62" y2="1051.78"/><line class="cls-2" x1="1235.62" y1="1028.48" x2="1212.32" y2="1051.78"/><line class="cls-2" x1="1212.32" y1="995.58" x2="1235.62" y2="1018.88"/><line class="cls-2" x1="1235.62" y1="995.58" x2="1212.32" y2="1018.88"/><line class="cls-2" x1="1245.22" y1="929.78" x2="1268.52" y2="953.08"/><line class="cls-2" x1="1268.52" y1="929.78" x2="1245.22" y2="953.08"/><line class="cls-2" x1="1245.22" y1="962.68" x2="1268.52" y2="985.98"/><line class="cls-2" x1="1268.52" y1="962.68" x2="1245.22" y2="985.98"/><line class="cls-2" x1="1278.12" y1="962.68" x2="1301.42" y2="985.98"/><line class="cls-2" x1="1301.42" y1="962.68" x2="1278.12" y2="985.98"/><line class="cls-2" x1="1278.12" y1="929.78" x2="1301.42" y2="953.08"/><line class="cls-2" x1="1301.42" y1="929.78" x2="1278.12" y2="953.08"/><line class="cls-2" x1="1245.22" y1="995.58" x2="1268.52" y2="1018.88"/><line class="cls-2" x1="1268.52" y1="995.58" x2="1245.22" y2="1018.88"/><line class="cls-2" x1="1245.22" y1="1028.48" x2="1268.52" y2="1051.78"/><line class="cls-2" x1="1268.52" y1="1028.48" x2="1245.22" y2="1051.78"/><line class="cls-2" x1="1278.12" y1="1028.48" x2="1301.42" y2="1051.78"/><line class="cls-2" x1="1301.42" y1="1028.48" x2="1278.12" y2="1051.78"/><line class="cls-2" x1="1278.12" y1="995.58" x2="1301.42" y2="1018.88"/><line class="cls-2" x1="1301.42" y1="995.58" x2="1278.12" y2="1018.88"/><line class="cls-2" x1="1311.02" y1="929.78" x2="1334.32" y2="953.08"/><line class="cls-2" x1="1334.32" y1="929.78" x2="1311.02" y2="953.08"/><line class="cls-2" x1="1311.02" y1="962.68" x2="1334.32" y2="985.98"/><line class="cls-2" x1="1334.32" y1="962.68" x2="1311.02" y2="985.98"/><line class="cls-2" x1="1343.92" y1="962.68" x2="1367.12" y2="985.98"/><line class="cls-2" x1="1367.12" y1="962.68" x2="1343.92" y2="985.98"/><line class="cls-2" x1="1343.92" y1="929.78" x2="1367.12" y2="953.08"/><line class="cls-2" x1="1367.12" y1="929.78" x2="1343.92" y2="953.08"/><line class="cls-2" x1="1311.02" y1="995.58" x2="1334.32" y2="1018.88"/><line class="cls-2" x1="1334.32" y1="995.58" x2="1311.02" y2="1018.88"/><line class="cls-2" x1="1311.02" y1="1028.48" x2="1334.32" y2="1051.78"/><line class="cls-2" x1="1334.32" y1="1028.48" x2="1311.02" y2="1051.78"/><line class="cls-2" x1="1343.92" y1="1028.48" x2="1367.12" y2="1051.78"/><line class="cls-2" x1="1367.12" y1="1028.48" x2="1343.92" y2="1051.78"/><line class="cls-2" x1="1343.92" y1="995.58" x2="1367.12" y2="1018.88"/><line class="cls-2" x1="1367.12" y1="995.58" x2="1343.92" y2="1018.88"/><line class="cls-2" x1="1113.72" y1="995.58" x2="1136.92" y2="1018.88"/><line class="cls-2" x1="1136.92" y1="995.58" x2="1113.72" y2="1018.88"/><line class="cls-2" x1="1113.72" y1="1028.48" x2="1136.92" y2="1051.78"/><line class="cls-2" x1="1136.92" y1="1028.48" x2="1113.72" y2="1051.78"/><line class="cls-2" x1="1146.52" y1="1028.48" x2="1169.82" y2="1051.78"/><line class="cls-2" x1="1169.82" y1="1028.48" x2="1146.52" y2="1051.78"/><line class="cls-2" x1="1146.52" y1="995.58" x2="1169.82" y2="1018.88"/><line class="cls-2" x1="1169.82" y1="995.58" x2="1146.52" y2="1018.88"/></g><g class="cls-1"><polygon class="cls-3" points="1223.92 331.98 1180.42 494.48 1342.92 450.98 1386.52 288.38 1223.92 331.98"/><polygon class="cls-3" points="1180.42 494.48 1299.42 613.58 1462.02 569.98 1342.92 450.98 1180.42 494.48"/><polygon class="cls-3" points="1342.92 450.98 1462.02 569.98 1505.52 407.38 1386.52 288.38 1342.92 450.98"/><polygon class="cls-3" points="1895.82 609.98 1826.12 591.28 1844.82 660.88 1914.42 679.58 1895.82 609.98"/><polygon class="cls-3" points="1826.12 591.28 1775.22 642.28 1793.82 711.88 1844.82 660.88 1826.12 591.28"/><polygon class="cls-3" points="1844.82 660.88 1793.82 711.88 1863.42 730.48 1914.42 679.58 1844.82 660.88"/><polygon class="cls-3" points="1775.22 858.68 1629.42 942.78 1775.22 1026.98 1920.92 942.78 1775.22 858.68"/><polygon class="cls-3" points="1629.42 942.78 1629.42 1111.18 1775.22 1195.28 1775.22 1026.98 1629.42 942.78"/><polygon class="cls-3" points="1775.22 1026.98 1775.22 1195.28 1920.92 1111.18 1920.92 942.78 1775.22 1026.98"/></g><g class="cls-1"><line class="cls-2" x1="2001.12" y1="517.68" x2="1969.12" y2="485.68"/><line class="cls-2" x1="1969.12" y1="517.68" x2="2001.12" y2="485.68"/><line class="cls-2" x1="2001.12" y1="472.48" x2="1969.12" y2="440.48"/><line class="cls-2" x1="1969.12" y1="472.48" x2="2001.12" y2="440.48"/><line class="cls-2" x1="1955.92" y1="472.48" x2="1923.92" y2="440.48"/><line class="cls-2" x1="1923.92" y1="472.48" x2="1955.92" y2="440.48"/><line class="cls-2" x1="1955.92" y1="517.68" x2="1923.92" y2="485.68"/><line class="cls-2" x1="1923.92" y1="517.68" x2="1955.92" y2="485.68"/><line class="cls-2" x1="1910.72" y1="517.68" x2="1878.72" y2="485.68"/><line class="cls-2" x1="1878.72" y1="517.68" x2="1910.72" y2="485.68"/><line class="cls-2" x1="1910.72" y1="472.48" x2="1878.72" y2="440.48"/><line class="cls-2" x1="1878.72" y1="472.48" x2="1910.72" y2="440.48"/><line class="cls-2" x1="1865.52" y1="472.48" x2="1833.52" y2="440.48"/><line class="cls-2" x1="1833.52" y1="472.48" x2="1865.52" y2="440.48"/><line class="cls-2" x1="1865.52" y1="517.68" x2="1833.52" y2="485.68"/><line class="cls-2" x1="1833.52" y1="517.68" x2="1865.52" y2="485.68"/><line class="cls-2" x1="1910.72" y1="427.28" x2="1878.72" y2="395.28"/><line class="cls-2" x1="1878.72" y1="427.28" x2="1910.72" y2="395.28"/><line class="cls-2" x1="1910.72" y1="382.08" x2="1878.72" y2="350.08"/><line class="cls-2" x1="1878.72" y1="382.08" x2="1910.72" y2="350.08"/><line class="cls-2" x1="1865.52" y1="382.08" x2="1833.52" y2="350.08"/><line class="cls-2" x1="1833.52" y1="382.08" x2="1865.52" y2="350.08"/><line class="cls-2" x1="1865.52" y1="427.28" x2="1833.52" y2="395.28"/><line class="cls-2" x1="1833.52" y1="427.28" x2="1865.52" y2="395.28"/><line class="cls-2" x1="1820.32" y1="517.68" x2="1788.32" y2="485.68"/><line class="cls-2" x1="1788.32" y1="517.68" x2="1820.32" y2="485.68"/><line class="cls-2" x1="1820.32" y1="472.48" x2="1788.32" y2="440.48"/><line class="cls-2" x1="1788.32" y1="472.48" x2="1820.32" y2="440.48"/><line class="cls-2" x1="1775.12" y1="472.48" x2="1743.12" y2="440.48"/><line class="cls-2" x1="1743.12" y1="472.48" x2="1775.12" y2="440.48"/><line class="cls-2" x1="1775.12" y1="517.68" x2="1743.12" y2="485.68"/><line class="cls-2" x1="1743.12" y1="517.68" x2="1775.12" y2="485.68"/><line class="cls-2" x1="1820.32" y1="427.28" x2="1788.32" y2="395.28"/><line class="cls-2" x1="1788.32" y1="427.28" x2="1820.32" y2="395.28"/><line class="cls-2" x1="1820.32" y1="382.08" x2="1788.32" y2="350.08"/><line class="cls-2" x1="1788.32" y1="382.08" x2="1820.32" y2="350.08"/><line class="cls-2" x1="1775.12" y1="382.08" x2="1743.12" y2="350.08"/><line class="cls-2" x1="1743.12" y1="382.08" x2="1775.12" y2="350.08"/><line class="cls-2" x1="1775.12" y1="427.28" x2="1743.12" y2="395.28"/><line class="cls-2" x1="1743.12" y1="427.28" x2="1775.12" y2="395.28"/><line class="cls-2" x1="1729.92" y1="517.68" x2="1697.92" y2="485.68"/><line class="cls-2" x1="1697.92" y1="517.68" x2="1729.92" y2="485.68"/><line class="cls-2" x1="1729.92" y1="472.48" x2="1697.92" y2="440.48"/><line class="cls-2" x1="1697.92" y1="472.48" x2="1729.92" y2="440.48"/><line class="cls-2" x1="1684.72" y1="472.48" x2="1652.72" y2="440.48"/><line class="cls-2" x1="1652.72" y1="472.48" x2="1684.72" y2="440.48"/><line class="cls-2" x1="1684.72" y1="517.68" x2="1652.72" y2="485.68"/><line class="cls-2" x1="1652.72" y1="517.68" x2="1684.72" y2="485.68"/><line class="cls-2" x1="1729.92" y1="427.28" x2="1697.92" y2="395.28"/><line class="cls-2" x1="1697.92" y1="427.28" x2="1729.92" y2="395.28"/><line class="cls-2" x1="1729.92" y1="382.08" x2="1697.92" y2="350.08"/><line class="cls-2" x1="1697.92" y1="382.08" x2="1729.92" y2="350.08"/><line class="cls-2" x1="1684.72" y1="382.08" x2="1652.72" y2="350.08"/><line class="cls-2" x1="1652.72" y1="382.08" x2="1684.72" y2="350.08"/><line class="cls-2" x1="1684.72" y1="427.28" x2="1652.72" y2="395.28"/><line class="cls-2" x1="1652.72" y1="427.28" x2="1684.72" y2="395.28"/><line class="cls-2" x1="2001.12" y1="427.28" x2="1969.12" y2="395.28"/><line class="cls-2" x1="1969.12" y1="427.28" x2="2001.12" y2="395.28"/><line class="cls-2" x1="2001.12" y1="382.08" x2="1969.12" y2="350.08"/><line class="cls-2" x1="1969.12" y1="382.08" x2="2001.12" y2="350.08"/><line class="cls-2" x1="1955.92" y1="382.08" x2="1923.92" y2="350.08"/><line class="cls-2" x1="1923.92" y1="382.08" x2="1955.92" y2="350.08"/><line class="cls-2" x1="1955.92" y1="427.28" x2="1923.92" y2="395.28"/><line class="cls-2" x1="1923.92" y1="427.28" x2="1955.92" y2="395.28"/></g><circle class="cls-4" cx="922.47" cy="650.23" r="80.25"/><polygon class="cls-5" points="588.44 1205.71 643.18 844.95 760.11 1195.28 588.44 1205.71"/><polyline class="cls-5" points="628.25 1098.73 643.18 844.95 782.5 1091.26 760.11 1195.28 588.44 1205.71 628.25 1098.73 782.5 1091.26"/><polygon class="cls-5" points="421.74 404.64 782.5 459.38 432.18 576.32 421.74 404.64"/><polyline class="cls-5" points="528.73 444.45 782.5 459.38 536.19 598.71 432.18 576.32 421.74 404.64 528.73 444.45 536.19 598.71"/><polygon class="cls-5" points="880.31 1700.55 1096.71 1994.35 766.3 1829.32 880.31 1700.55"/><polyline class="cls-5" points="927.82 1804.35 1096.71 1994.35 824.02 1918.7 766.3 1829.32 880.31 1700.55 927.82 1804.35 824.02 1918.7"/><g class="cls-1"><polygon class="cls-3" points="155.72 1407.6 112.22 1570.1 274.72 1526.6 318.32 1364 155.72 1407.6"/><polygon class="cls-3" points="112.22 1570.1 231.22 1689.2 393.82 1645.6 274.72 1526.6 112.22 1570.1"/><polygon class="cls-3" points="274.72 1526.6 393.82 1645.6 437.32 1483 318.32 1364 274.72 1526.6"/><polygon class="cls-3" points="1641.42 1755.2 1571.72 1736.5 1590.42 1806.1 1660.02 1824.8 1641.42 1755.2"/><polygon class="cls-3" points="1571.72 1736.5 1520.82 1787.5 1539.42 1857.1 1590.42 1806.1 1571.72 1736.5"/><polygon class="cls-3" points="1590.42 1806.1 1539.42 1857.1 1609.02 1875.7 1660.02 1824.8 1590.42 1806.1"/><polygon class="cls-3" points="1180.52 2033.84 1034.72 2117.95 1180.52 2202.14 1326.22 2117.95 1180.52 2033.84"/><polygon class="cls-3" points="1034.72 2117.95 1034.72 2286.34 1180.52 2370.45 1180.52 2202.14 1034.72 2117.95"/><polygon class="cls-3" points="1180.52 2202.14 1180.52 2370.45 1326.22 2286.34 1326.22 2117.95 1180.52 2202.14"/></g><g class="cls-1"><line class="cls-2" x1="2.13" y1="2075.99" x2="57.18" y2="2131.28"/><line class="cls-2" x1="57.18" y1="2075.99" x2="2.13" y2="2131.28"/><line class="cls-2" x1="2.13" y1="2154.07" x2="57.18" y2="2209.36"/><line class="cls-2" x1="57.18" y1="2154.07" x2="2.13" y2="2209.36"/><line class="cls-2" x1="79.97" y1="2154.07" x2="135.26" y2="2209.36"/><line class="cls-2" x1="135.26" y1="2154.07" x2="79.97" y2="2209.36"/><line class="cls-2" x1="79.97" y1="2075.99" x2="135.26" y2="2131.28"/><line class="cls-2" x1="135.26" y1="2075.99" x2="79.97" y2="2131.28"/><line class="cls-2" x1="158.05" y1="2075.99" x2="213.34" y2="2131.28"/><line class="cls-2" x1="213.34" y1="2075.99" x2="158.05" y2="2131.28"/><line class="cls-2" x1="158.05" y1="2154.07" x2="213.34" y2="2209.36"/><line class="cls-2" x1="213.34" y1="2154.07" x2="158.05" y2="2209.36"/><line class="cls-2" x1="236.13" y1="2154.07" x2="291.42" y2="2209.36"/><line class="cls-2" x1="291.42" y1="2154.07" x2="236.13" y2="2209.36"/><line class="cls-2" x1="236.13" y1="2075.99" x2="291.42" y2="2131.28"/><line class="cls-2" x1="291.42" y1="2075.99" x2="236.13" y2="2131.28"/><line class="cls-2" x1="158.05" y1="2232.14" x2="213.34" y2="2287.44"/><line class="cls-2" x1="213.34" y1="2232.14" x2="158.05" y2="2287.44"/><line class="cls-2" x1="158.05" y1="2310.22" x2="213.34" y2="2365.52"/><line class="cls-2" x1="213.34" y1="2310.22" x2="158.05" y2="2365.52"/><line class="cls-2" x1="236.13" y1="2310.22" x2="291.42" y2="2365.52"/><line class="cls-2" x1="291.42" y1="2310.22" x2="236.13" y2="2365.52"/><line class="cls-2" x1="236.13" y1="2232.14" x2="291.42" y2="2287.44"/><line class="cls-2" x1="291.42" y1="2232.14" x2="236.13" y2="2287.44"/><line class="cls-2" x1="314.21" y1="2075.99" x2="369.5" y2="2131.28"/><line class="cls-2" x1="369.5" y1="2075.99" x2="314.21" y2="2131.28"/><line class="cls-2" x1="314.21" y1="2154.07" x2="369.5" y2="2209.36"/><line class="cls-2" x1="369.5" y1="2154.07" x2="314.21" y2="2209.36"/><line class="cls-2" x1="392.28" y1="2154.07" x2="447.58" y2="2209.36"/><line class="cls-2" x1="447.58" y1="2154.07" x2="392.28" y2="2209.36"/><line class="cls-2" x1="392.28" y1="2075.99" x2="447.58" y2="2131.28"/><line class="cls-2" x1="447.58" y1="2075.99" x2="392.28" y2="2131.28"/><line class="cls-2" x1="314.21" y1="2232.14" x2="369.5" y2="2287.44"/><line class="cls-2" x1="369.5" y1="2232.14" x2="314.21" y2="2287.44"/><line class="cls-2" x1="314.21" y1="2310.22" x2="369.5" y2="2365.52"/><line class="cls-2" x1="369.5" y1="2310.22" x2="314.21" y2="2365.52"/><line class="cls-2" x1="392.28" y1="2310.22" x2="447.58" y2="2365.52"/><line class="cls-2" x1="447.58" y1="2310.22" x2="392.28" y2="2365.52"/><line class="cls-2" x1="392.28" y1="2232.14" x2="447.58" y2="2287.44"/><line class="cls-2" x1="447.58" y1="2232.14" x2="392.28" y2="2287.44"/><line class="cls-2" x1="470.36" y1="2075.99" x2="525.66" y2="2131.28"/><line class="cls-2" x1="525.66" y1="2075.99" x2="470.36" y2="2131.28"/><line class="cls-2" x1="470.36" y1="2154.07" x2="525.66" y2="2209.36"/><line class="cls-2" x1="525.66" y1="2154.07" x2="470.36" y2="2209.36"/><line class="cls-2" x1="548.44" y1="2154.07" x2="603.5" y2="2209.36"/><line class="cls-2" x1="603.5" y1="2154.07" x2="548.44" y2="2209.36"/><line class="cls-2" x1="548.44" y1="2075.99" x2="603.5" y2="2131.28"/><line class="cls-2" x1="603.5" y1="2075.99" x2="548.44" y2="2131.28"/><line class="cls-2" x1="470.36" y1="2232.14" x2="525.66" y2="2287.44"/><line class="cls-2" x1="525.66" y1="2232.14" x2="470.36" y2="2287.44"/><line class="cls-2" x1="470.36" y1="2310.22" x2="525.66" y2="2365.52"/><line class="cls-2" x1="525.66" y1="2310.22" x2="470.36" y2="2365.52"/><line class="cls-2" x1="548.44" y1="2310.22" x2="603.5" y2="2365.52"/><line class="cls-2" x1="603.5" y1="2310.22" x2="548.44" y2="2365.52"/><line class="cls-2" x1="548.44" y1="2232.14" x2="603.5" y2="2287.44"/><line class="cls-2" x1="603.5" y1="2232.14" x2="548.44" y2="2287.44"/><line class="cls-2" x1="2.13" y1="2232.14" x2="57.18" y2="2287.44"/><line class="cls-2" x1="57.18" y1="2232.14" x2="2.13" y2="2287.44"/><line class="cls-2" x1="2.13" y1="2310.22" x2="57.18" y2="2365.52"/><line class="cls-2" x1="57.18" y1="2310.22" x2="2.13" y2="2365.52"/><line class="cls-2" x1="79.97" y1="2310.22" x2="135.26" y2="2365.52"/><line class="cls-2" x1="135.26" y1="2310.22" x2="79.97" y2="2365.52"/><line class="cls-2" x1="79.97" y1="2232.14" x2="135.26" y2="2287.44"/><line class="cls-2" x1="135.26" y1="2232.14" x2="79.97" y2="2287.44"/></g><g class="cls-1"><line class="cls-2" x1="1445.25" y1="1680.4" x2="1424.94" y2="1660.09"/><line class="cls-2" x1="1424.94" y1="1680.4" x2="1445.25" y2="1660.09"/><line class="cls-2" x1="1445.25" y1="1651.71" x2="1424.94" y2="1631.39"/><line class="cls-2" x1="1424.94" y1="1651.71" x2="1445.25" y2="1631.39"/><line class="cls-2" x1="1416.56" y1="1651.71" x2="1396.24" y2="1631.39"/><line class="cls-2" x1="1396.24" y1="1651.71" x2="1416.56" y2="1631.39"/><line class="cls-2" x1="1416.56" y1="1680.4" x2="1396.24" y2="1660.09"/><line class="cls-2" x1="1396.24" y1="1680.4" x2="1416.56" y2="1660.09"/><line class="cls-2" x1="1387.86" y1="1680.4" x2="1367.55" y2="1660.09"/><line class="cls-2" x1="1367.55" y1="1680.4" x2="1387.86" y2="1660.09"/><line class="cls-2" x1="1387.86" y1="1651.71" x2="1367.55" y2="1631.39"/><line class="cls-2" x1="1367.55" y1="1651.71" x2="1387.86" y2="1631.39"/><line class="cls-2" x1="1359.17" y1="1651.71" x2="1338.85" y2="1631.39"/><line class="cls-2" x1="1338.85" y1="1651.71" x2="1359.17" y2="1631.39"/><line class="cls-2" x1="1359.17" y1="1680.4" x2="1338.85" y2="1660.09"/><line class="cls-2" x1="1338.85" y1="1680.4" x2="1359.17" y2="1660.09"/><line class="cls-2" x1="1387.86" y1="1623.01" x2="1367.55" y2="1602.7"/><line class="cls-2" x1="1367.55" y1="1623.01" x2="1387.86" y2="1602.7"/><line class="cls-2" x1="1387.86" y1="1594.32" x2="1367.55" y2="1574"/><line class="cls-2" x1="1367.55" y1="1594.32" x2="1387.86" y2="1574"/><line class="cls-2" x1="1359.17" y1="1594.32" x2="1338.85" y2="1574"/><line class="cls-2" x1="1338.85" y1="1594.32" x2="1359.17" y2="1574"/><line class="cls-2" x1="1359.17" y1="1623.01" x2="1338.85" y2="1602.7"/><line class="cls-2" x1="1338.85" y1="1623.01" x2="1359.17" y2="1602.7"/><line class="cls-2" x1="1330.47" y1="1680.4" x2="1310.16" y2="1660.09"/><line class="cls-2" x1="1310.16" y1="1680.4" x2="1330.47" y2="1660.09"/><line class="cls-2" x1="1330.47" y1="1651.71" x2="1310.16" y2="1631.39"/><line class="cls-2" x1="1310.16" y1="1651.71" x2="1330.47" y2="1631.39"/><line class="cls-2" x1="1301.78" y1="1651.71" x2="1281.46" y2="1631.39"/><line class="cls-2" x1="1281.46" y1="1651.71" x2="1301.78" y2="1631.39"/><line class="cls-2" x1="1301.78" y1="1680.4" x2="1281.46" y2="1660.09"/><line class="cls-2" x1="1281.46" y1="1680.4" x2="1301.78" y2="1660.09"/><line class="cls-2" x1="1330.47" y1="1623.01" x2="1310.16" y2="1602.7"/><line class="cls-2" x1="1310.16" y1="1623.01" x2="1330.47" y2="1602.7"/><line class="cls-2" x1="1330.47" y1="1594.32" x2="1310.16" y2="1574"/><line class="cls-2" x1="1310.16" y1="1594.32" x2="1330.47" y2="1574"/><line class="cls-2" x1="1301.78" y1="1594.32" x2="1281.46" y2="1574"/><line class="cls-2" x1="1281.46" y1="1594.32" x2="1301.78" y2="1574"/><line class="cls-2" x1="1301.78" y1="1623.01" x2="1281.46" y2="1602.7"/><line class="cls-2" x1="1281.46" y1="1623.01" x2="1301.78" y2="1602.7"/><line class="cls-2" x1="1273.08" y1="1680.4" x2="1252.77" y2="1660.09"/><line class="cls-2" x1="1252.77" y1="1680.4" x2="1273.08" y2="1660.09"/><line class="cls-2" x1="1273.08" y1="1651.71" x2="1252.77" y2="1631.39"/><line class="cls-2" x1="1252.77" y1="1651.71" x2="1273.08" y2="1631.39"/><line class="cls-2" x1="1244.39" y1="1651.71" x2="1224.07" y2="1631.39"/><line class="cls-2" x1="1224.07" y1="1651.71" x2="1244.39" y2="1631.39"/><line class="cls-2" x1="1244.39" y1="1680.4" x2="1224.07" y2="1660.09"/><line class="cls-2" x1="1224.07" y1="1680.4" x2="1244.39" y2="1660.09"/><line class="cls-2" x1="1273.08" y1="1623.01" x2="1252.77" y2="1602.7"/><line class="cls-2" x1="1252.77" y1="1623.01" x2="1273.08" y2="1602.7"/><line class="cls-2" x1="1273.08" y1="1594.32" x2="1252.77" y2="1574"/><line class="cls-2" x1="1252.77" y1="1594.32" x2="1273.08" y2="1574"/><line class="cls-2" x1="1244.39" y1="1594.32" x2="1224.07" y2="1574"/><line class="cls-2" x1="1224.07" y1="1594.32" x2="1244.39" y2="1574"/><line class="cls-2" x1="1244.39" y1="1623.01" x2="1224.07" y2="1602.7"/><line class="cls-2" x1="1224.07" y1="1623.01" x2="1244.39" y2="1602.7"/><line class="cls-2" x1="1445.25" y1="1623.01" x2="1424.94" y2="1602.7"/><line class="cls-2" x1="1424.94" y1="1623.01" x2="1445.25" y2="1602.7"/><line class="cls-2" x1="1445.25" y1="1594.32" x2="1424.94" y2="1574"/><line class="cls-2" x1="1424.94" y1="1594.32" x2="1445.25" y2="1574"/><line class="cls-2" x1="1416.56" y1="1594.32" x2="1396.24" y2="1574"/><line class="cls-2" x1="1396.24" y1="1594.32" x2="1416.56" y2="1574"/><line class="cls-2" x1="1416.56" y1="1623.01" x2="1396.24" y2="1602.7"/><line class="cls-2" x1="1396.24" y1="1623.01" x2="1416.56" y2="1602.7"/></g><g class="cls-1"><line class="cls-2" x1="219.73" y1="1186.08" x2="262.53" y2="1143.28"/><line class="cls-2" x1="219.73" y1="1143.28" x2="262.53" y2="1186.08"/><line class="cls-2" x1="280.13" y1="1186.08" x2="322.93" y2="1143.28"/><line class="cls-2" x1="280.13" y1="1143.28" x2="322.93" y2="1186.08"/><line class="cls-2" x1="280.13" y1="1125.58" x2="322.93" y2="1082.78"/><line class="cls-2" x1="280.13" y1="1082.78" x2="322.93" y2="1125.58"/><line class="cls-2" x1="219.73" y1="1125.58" x2="262.53" y2="1082.78"/><line class="cls-2" x1="219.73" y1="1082.78" x2="262.53" y2="1125.58"/><line class="cls-2" x1="219.73" y1="1065.18" x2="262.53" y2="1022.38"/><line class="cls-2" x1="219.73" y1="1022.38" x2="262.53" y2="1065.18"/><line class="cls-2" x1="280.13" y1="1065.18" x2="322.93" y2="1022.38"/><line class="cls-2" x1="280.13" y1="1022.38" x2="322.93" y2="1065.18"/><line class="cls-2" x1="280.13" y1="1004.68" x2="322.93" y2="961.88"/><line class="cls-2" x1="280.13" y1="961.88" x2="322.93" y2="1004.68"/><line class="cls-2" x1="219.73" y1="1004.68" x2="262.53" y2="961.88"/><line class="cls-2" x1="219.73" y1="961.88" x2="262.53" y2="1004.68"/><line class="cls-2" x1="340.63" y1="1065.18" x2="383.43" y2="1022.38"/><line class="cls-2" x1="340.63" y1="1022.38" x2="383.43" y2="1065.18"/><line class="cls-2" x1="401.03" y1="1065.18" x2="443.83" y2="1022.38"/><line class="cls-2" x1="401.03" y1="1022.38" x2="443.83" y2="1065.18"/><line class="cls-2" x1="401.03" y1="1004.68" x2="443.83" y2="961.88"/><line class="cls-2" x1="401.03" y1="961.88" x2="443.83" y2="1004.68"/><line class="cls-2" x1="340.63" y1="1004.68" x2="383.43" y2="961.88"/><line class="cls-2" x1="340.63" y1="961.88" x2="383.43" y2="1004.68"/><line class="cls-2" x1="219.73" y1="944.28" x2="262.53" y2="901.48"/><line class="cls-2" x1="219.73" y1="901.48" x2="262.53" y2="944.28"/><line class="cls-2" x1="280.13" y1="944.28" x2="322.93" y2="901.48"/><line class="cls-2" x1="280.13" y1="901.48" x2="322.93" y2="944.28"/><line class="cls-2" x1="280.13" y1="883.78" x2="322.93" y2="840.98"/><line class="cls-2" x1="280.13" y1="840.98" x2="322.93" y2="883.78"/><line class="cls-2" x1="219.73" y1="883.78" x2="262.53" y2="840.98"/><line class="cls-2" x1="219.73" y1="840.98" x2="262.53" y2="883.78"/><line class="cls-2" x1="340.63" y1="944.28" x2="383.43" y2="901.48"/><line class="cls-2" x1="340.63" y1="901.48" x2="383.43" y2="944.28"/><line class="cls-2" x1="401.03" y1="944.28" x2="443.83" y2="901.48"/><line class="cls-2" x1="401.03" y1="901.48" x2="443.83" y2="944.28"/><line class="cls-2" x1="401.03" y1="883.78" x2="443.83" y2="840.98"/><line class="cls-2" x1="401.03" y1="840.98" x2="443.83" y2="883.78"/><line class="cls-2" x1="340.63" y1="883.78" x2="383.43" y2="840.98"/><line class="cls-2" x1="340.63" y1="840.98" x2="383.43" y2="883.78"/><line class="cls-2" x1="219.73" y1="823.38" x2="262.53" y2="780.58"/><line class="cls-2" x1="219.73" y1="780.58" x2="262.53" y2="823.38"/><line class="cls-2" x1="280.13" y1="823.38" x2="322.93" y2="780.58"/><line class="cls-2" x1="280.13" y1="780.58" x2="322.93" y2="823.38"/><line class="cls-2" x1="280.13" y1="762.88" x2="322.93" y2="720.08"/><line class="cls-2" x1="280.13" y1="720.08" x2="322.93" y2="762.88"/><line class="cls-2" x1="219.73" y1="762.88" x2="262.53" y2="720.08"/><line class="cls-2" x1="219.73" y1="720.08" x2="262.53" y2="762.88"/><line class="cls-2" x1="340.63" y1="823.38" x2="383.43" y2="780.58"/><line class="cls-2" x1="340.63" y1="780.58" x2="383.43" y2="823.38"/><line class="cls-2" x1="401.03" y1="823.38" x2="443.83" y2="780.58"/><line class="cls-2" x1="401.03" y1="780.58" x2="443.83" y2="823.38"/><line class="cls-2" x1="401.03" y1="762.88" x2="443.83" y2="720.08"/><line class="cls-2" x1="401.03" y1="720.08" x2="443.83" y2="762.88"/><line class="cls-2" x1="340.63" y1="762.88" x2="383.43" y2="720.08"/><line class="cls-2" x1="340.63" y1="720.08" x2="383.43" y2="762.88"/><line class="cls-2" x1="340.63" y1="1186.08" x2="383.43" y2="1143.28"/><line class="cls-2" x1="340.63" y1="1143.28" x2="383.43" y2="1186.08"/><line class="cls-2" x1="401.03" y1="1186.08" x2="443.83" y2="1143.28"/><line class="cls-2" x1="401.03" y1="1143.28" x2="443.83" y2="1186.08"/><line class="cls-2" x1="401.03" y1="1125.58" x2="443.83" y2="1082.78"/><line class="cls-2" x1="401.03" y1="1082.78" x2="443.83" y2="1125.58"/><line class="cls-2" x1="340.63" y1="1125.58" x2="383.43" y2="1082.78"/><line class="cls-2" x1="340.63" y1="1082.78" x2="383.43" y2="1125.58"/></g><g class="cls-1"><line class="cls-2" x1="1663.17" y1="2442.36" x2="1705.97" y2="2399.56"/><line class="cls-2" x1="1663.17" y1="2399.56" x2="1705.97" y2="2442.36"/><line class="cls-2" x1="1723.57" y1="2442.36" x2="1766.37" y2="2399.56"/><line class="cls-2" x1="1723.57" y1="2399.56" x2="1766.37" y2="2442.36"/><line class="cls-2" x1="1723.57" y1="2381.86" x2="1766.37" y2="2339.06"/><line class="cls-2" x1="1723.57" y1="2339.06" x2="1766.37" y2="2381.86"/><line class="cls-2" x1="1663.17" y1="2381.86" x2="1705.97" y2="2339.06"/><line class="cls-2" x1="1663.17" y1="2339.06" x2="1705.97" y2="2381.86"/><line class="cls-2" x1="1663.17" y1="2321.46" x2="1705.97" y2="2278.66"/><line class="cls-2" x1="1663.17" y1="2278.66" x2="1705.97" y2="2321.46"/><line class="cls-2" x1="1723.57" y1="2321.46" x2="1766.37" y2="2278.66"/><line class="cls-2" x1="1723.57" y1="2278.66" x2="1766.37" y2="2321.46"/><line class="cls-2" x1="1723.57" y1="2260.96" x2="1766.37" y2="2218.16"/><line class="cls-2" x1="1723.57" y1="2218.16" x2="1766.37" y2="2260.96"/><line class="cls-2" x1="1663.17" y1="2260.96" x2="1705.97" y2="2218.16"/><line class="cls-2" x1="1663.17" y1="2218.16" x2="1705.97" y2="2260.96"/><line class="cls-2" x1="1784.07" y1="2321.46" x2="1826.87" y2="2278.66"/><line class="cls-2" x1="1784.07" y1="2278.66" x2="1826.87" y2="2321.46"/><line class="cls-2" x1="1844.47" y1="2321.46" x2="1887.27" y2="2278.66"/><line class="cls-2" x1="1844.47" y1="2278.66" x2="1887.27" y2="2321.46"/><line class="cls-2" x1="1844.47" y1="2260.96" x2="1887.27" y2="2218.16"/><line class="cls-2" x1="1844.47" y1="2218.16" x2="1887.27" y2="2260.96"/><line class="cls-2" x1="1784.07" y1="2260.96" x2="1826.87" y2="2218.16"/><line class="cls-2" x1="1784.07" y1="2218.16" x2="1826.87" y2="2260.96"/><line class="cls-2" x1="1663.17" y1="2200.56" x2="1705.97" y2="2157.76"/><line class="cls-2" x1="1663.17" y1="2157.76" x2="1705.97" y2="2200.56"/><line class="cls-2" x1="1723.57" y1="2200.56" x2="1766.37" y2="2157.76"/><line class="cls-2" x1="1723.57" y1="2157.76" x2="1766.37" y2="2200.56"/><line class="cls-2" x1="1723.57" y1="2140.06" x2="1766.37" y2="2097.26"/><line class="cls-2" x1="1723.57" y1="2097.26" x2="1766.37" y2="2140.06"/><line class="cls-2" x1="1663.17" y1="2140.06" x2="1705.97" y2="2097.26"/><line class="cls-2" x1="1663.17" y1="2097.26" x2="1705.97" y2="2140.06"/><line class="cls-2" x1="1784.07" y1="2200.56" x2="1826.87" y2="2157.76"/><line class="cls-2" x1="1784.07" y1="2157.76" x2="1826.87" y2="2200.56"/><line class="cls-2" x1="1844.47" y1="2200.56" x2="1887.27" y2="2157.76"/><line class="cls-2" x1="1844.47" y1="2157.76" x2="1887.27" y2="2200.56"/><line class="cls-2" x1="1844.47" y1="2140.06" x2="1887.27" y2="2097.26"/><line class="cls-2" x1="1844.47" y1="2097.26" x2="1887.27" y2="2140.06"/><line class="cls-2" x1="1784.07" y1="2140.06" x2="1826.87" y2="2097.26"/><line class="cls-2" x1="1784.07" y1="2097.26" x2="1826.87" y2="2140.06"/><line class="cls-2" x1="1663.17" y1="2079.66" x2="1705.97" y2="2036.86"/><line class="cls-2" x1="1663.17" y1="2036.86" x2="1705.97" y2="2079.66"/><line class="cls-2" x1="1723.57" y1="2079.66" x2="1766.37" y2="2036.86"/><line class="cls-2" x1="1723.57" y1="2036.86" x2="1766.37" y2="2079.66"/><line class="cls-2" x1="1723.57" y1="2019.16" x2="1766.37" y2="1976.36"/><line class="cls-2" x1="1723.57" y1="1976.36" x2="1766.37" y2="2019.16"/><line class="cls-2" x1="1663.17" y1="2019.16" x2="1705.97" y2="1976.36"/><line class="cls-2" x1="1663.17" y1="1976.36" x2="1705.97" y2="2019.16"/><line class="cls-2" x1="1784.07" y1="2079.66" x2="1826.87" y2="2036.86"/><line class="cls-2" x1="1784.07" y1="2036.86" x2="1826.87" y2="2079.66"/><line class="cls-2" x1="1844.47" y1="2079.66" x2="1887.27" y2="2036.86"/><line class="cls-2" x1="1844.47" y1="2036.86" x2="1887.27" y2="2079.66"/><line class="cls-2" x1="1844.47" y1="2019.16" x2="1887.27" y2="1976.36"/><line class="cls-2" x1="1844.47" y1="1976.36" x2="1887.27" y2="2019.16"/><line class="cls-2" x1="1784.07" y1="2019.16" x2="1826.87" y2="1976.36"/><line class="cls-2" x1="1784.07" y1="1976.36" x2="1826.87" y2="2019.16"/><line class="cls-2" x1="1784.07" y1="2442.36" x2="1826.87" y2="2399.56"/><line class="cls-2" x1="1784.07" y1="2399.56" x2="1826.87" y2="2442.36"/><line class="cls-2" x1="1844.47" y1="2442.36" x2="1887.27" y2="2399.56"/><line class="cls-2" x1="1844.47" y1="2399.56" x2="1887.27" y2="2442.36"/><line class="cls-2" x1="1844.47" y1="2381.86" x2="1887.27" y2="2339.06"/><line class="cls-2" x1="1844.47" y1="2339.06" x2="1887.27" y2="2381.86"/><line class="cls-2" x1="1784.07" y1="2381.86" x2="1826.87" y2="2339.06"/><line class="cls-2" x1="1784.07" y1="2339.06" x2="1826.87" y2="2381.86"/></g><circle class="cls-6" cx="944.52" cy="1427.9" r="213.65"/><circle class="cls-4" cx="1767.82" cy="1508.15" r="80.25"/></svg>